<svg width="396" height="483" viewBox="0 0 396 483" fill="none" xmlns="http://www.w3.org/2000/svg">
<g filter="url(#filter0_d_1219_6549)">
<path d="M192.597 311C255.978 311 307.359 260.184 307.359 197.5C307.359 134.816 255.978 84 192.597 84C129.216 84 77.835 134.816 77.835 197.5C77.835 260.184 129.216 311 192.597 311Z" fill="url(#paint0_linear_1219_6549)"/>
<path fill-rule="evenodd" clip-rule="evenodd" d="M291.613 269.852C292.658 269.483 293.759 268.993 294.608 268.284C295.616 267.442 296.025 266.357 296.301 265.215C296.654 263.748 296.795 262.185 297.224 260.716C297.383 260.17 297.688 259.964 297.819 259.872C298.15 259.641 298.485 259.579 298.8 259.602C299.173 259.629 299.686 259.769 300.023 260.388C300.071 260.476 300.134 260.611 300.176 260.796C300.206 260.931 300.226 261.355 300.259 261.53C300.34 261.96 300.408 262.391 300.471 262.824C300.684 264.264 300.806 265.487 301.476 266.81C302.385 268.607 303.296 269.706 304.532 270.193C305.727 270.664 307.156 270.575 308.981 270.206C309.155 270.164 309.327 270.129 309.497 270.099C310.301 269.96 311.071 270.483 311.229 271.276C311.387 272.068 310.875 272.84 310.078 273.015C309.911 273.051 309.747 273.085 309.585 273.117C307.118 273.721 304.263 275.876 302.603 277.764C302.092 278.345 301.343 279.972 300.579 281.01C300.015 281.776 299.382 282.281 298.85 282.459C298.493 282.579 298.193 282.561 297.945 282.5C297.584 282.412 297.285 282.219 297.055 281.911C296.93 281.743 296.814 281.518 296.759 281.23C296.732 281.092 296.729 280.74 296.73 280.581C296.574 280.051 296.384 279.534 296.245 278.999C295.914 277.724 295.264 276.917 294.492 275.851C293.77 274.853 292.995 274.225 291.858 273.725C291.711 273.689 290.517 273.4 290.096 273.234C289.481 272.991 289.187 272.584 289.081 272.365C288.9 271.993 288.881 271.668 288.917 271.397C288.971 270.996 289.153 270.654 289.475 270.378C289.674 270.206 289.972 270.039 290.371 269.957C290.68 269.894 291.498 269.857 291.613 269.852ZM298.612 267.773C298.667 267.895 298.726 268.018 298.788 268.141C300.12 270.772 301.61 272.241 303.42 272.954L303.481 272.977C302.27 273.866 301.173 274.86 300.335 275.813C299.99 276.205 299.534 277.02 299.04 277.856C298.592 276.415 297.859 275.396 296.937 274.121C296.232 273.148 295.494 272.415 294.587 271.819C295.291 271.461 295.962 271.043 296.547 270.554C297.521 269.74 298.165 268.798 298.612 267.773Z" fill="#417BA4"/>
<ellipse cx="62.4352" cy="175.383" rx="5.43521" ry="5.37545" fill="#417BA4"/>
<path d="M100.72 116.347L100.72 116.347C99.9866 115.878 99.7687 114.902 100.244 114.168C100.715 113.435 101.694 113.225 102.426 113.693C107.24 116.767 110.394 121.03 111.989 126.469C112.237 127.309 111.746 128.182 110.914 128.424L110.913 128.424C110.077 128.667 109.195 128.191 108.953 127.352L109.433 127.213L108.953 127.354C107.576 122.658 104.873 118.997 100.72 116.347Z" fill="#011625" stroke="#011625"/>
<path d="M160.254 129.013L160.253 129.013C158.993 129.649 157.918 129.607 157.06 129.182C156.241 128.777 155.642 128.003 155.278 127.043L155.278 127.043C154.931 126.127 154.793 125.001 154.778 123.936C154.765 122.988 154.851 122.055 154.994 121.315C154.171 120.492 153.275 119.742 152.321 119.069C144.752 113.734 133.53 115.641 124.798 123.794C123.343 125.153 122.231 127.298 121.386 129.96C120.544 132.614 119.983 135.733 119.598 138.991L119.598 138.991C118.553 147.814 118.935 157.537 119.115 162.131C119.142 162.82 119.165 163.394 119.177 163.832L119.177 163.833C119.189 164.263 119.174 164.611 119.15 164.87C119.138 164.999 119.123 165.11 119.107 165.199C119.094 165.272 119.073 165.371 119.037 165.454C118.744 166.145 118.197 166.336 117.857 166.4L117.857 166.4L117.852 166.401C117.372 166.486 116.972 166.395 116.649 166.228L116.646 166.227C116.206 165.996 115.856 165.592 115.699 165.009L115.698 165.006C115.614 164.687 115.599 164.284 115.608 163.906L115.608 163.901C115.611 163.825 115.617 163.749 115.622 163.684C115.623 163.669 115.624 163.654 115.625 163.64C115.63 163.59 115.633 163.546 115.636 163.502C115.639 163.448 115.64 163.407 115.639 163.375C115.638 163.343 115.634 163.333 115.636 163.337C115.345 162.33 115.003 161.343 114.655 160.338C114.604 160.192 114.553 160.045 114.502 159.897L114.502 159.896C113.185 156.057 111.481 152.454 109.579 148.84L110.022 148.608L109.579 148.84C109.068 147.87 108.559 146.895 108.05 145.92C102.495 135.286 96.8562 124.49 87.8322 116.52L87.8321 116.52C87.1809 115.945 87.1152 114.947 87.6991 114.294C88.2777 113.643 89.2752 113.588 89.9289 114.161L89.9303 114.162C99.3603 122.487 105.253 133.754 110.951 144.65C111.428 145.562 111.904 146.472 112.38 147.377L112.38 147.377C113.59 149.675 114.727 151.981 115.744 154.35C115.696 148.974 115.863 142.318 116.764 136.317C117.235 133.184 117.92 130.217 118.873 127.67C119.824 125.129 121.055 122.972 122.636 121.495L122.636 121.495C132.431 112.348 145.321 110.272 154.148 116.497L154.148 116.497C154.912 117.036 155.647 117.619 156.344 118.245C161.079 110.364 170.716 107.274 179.246 111.147C180.043 111.508 180.393 112.444 180.031 113.236L180.031 113.236L180.03 113.239C179.663 114.028 178.729 114.375 177.934 114.015L177.934 114.015C170.632 110.7 162.372 113.569 158.631 120.62C159.403 121.552 160.1 122.55 160.701 123.607C160.996 124.126 161.541 125.269 161.629 126.293C161.729 127.415 161.339 128.464 160.254 129.013ZM158.237 125.929L158.237 125.93C158.296 126.083 158.341 126.189 158.389 126.268C158.409 126.301 158.426 126.322 158.439 126.336C158.361 126.008 158.212 125.667 158.08 125.406C158.124 125.592 158.176 125.768 158.237 125.929Z" fill="#011625" stroke="#011625"/>
<rect x="139.632" y="142.887" width="197.556" height="70.4335" rx="24" fill="#011625"/>
<rect x="221.181" y="167.135" width="66.6179" height="9.23718" rx="4.61859" fill="#CCC6D9"/>
<rect x="156.861" y="180.99" width="131.274" height="9.23718" rx="4.61859" fill="white"/>
<ellipse cx="311.919" cy="178.681" rx="11.4858" ry="11.5465" fill="#E1DCEB"/>
<rect x="56.9999" y="201.774" width="197.556" height="70.4335" rx="24" fill="#E1DCEB"/>
<rect x="106.389" y="226.022" width="66.6179" height="9.23718" rx="4.61859" fill="#FF4040"/>
<rect x="106.389" y="239.878" width="131.274" height="9.23719" rx="4.61859" fill="white"/>
<ellipse cx="85.7145" cy="237.568" rx="11.4858" ry="11.5465" fill="#FF4040"/>
<path d="M92.0024 406.152L86.1704 417.432V423H82.0664V417.432L76.2344 406.152H80.8904L84.1544 413.208L87.3944 406.152H92.0024ZM99.752 423.192C98.44 423.192 97.256 422.912 96.2 422.352C95.16 421.792 94.336 420.992 93.728 419.952C93.136 418.912 92.84 417.696 92.84 416.304C92.84 414.928 93.144 413.72 93.752 412.68C94.36 411.624 95.192 410.816 96.248 410.256C97.304 409.696 98.488 409.416 99.8 409.416C101.112 409.416 102.296 409.696 103.352 410.256C104.408 410.816 105.24 411.624 105.848 412.68C106.456 413.72 106.76 414.928 106.76 416.304C106.76 417.68 106.448 418.896 105.824 419.952C105.216 420.992 104.376 421.792 103.304 422.352C102.248 422.912 101.064 423.192 99.752 423.192ZM99.752 419.64C100.536 419.64 101.2 419.352 101.744 418.776C102.304 418.2 102.584 417.376 102.584 416.304C102.584 415.232 102.312 414.408 101.768 413.832C101.24 413.256 100.584 412.968 99.8 412.968C99 412.968 98.336 413.256 97.808 413.832C97.28 414.392 97.016 415.216 97.016 416.304C97.016 417.376 97.272 418.2 97.784 418.776C98.312 419.352 98.968 419.64 99.752 419.64ZM122.161 409.608V423H118.057V421.176C117.641 421.768 117.073 422.248 116.353 422.616C115.649 422.968 114.865 423.144 114.001 423.144C112.977 423.144 112.073 422.92 111.289 422.472C110.505 422.008 109.897 421.344 109.465 420.48C109.033 419.616 108.817 418.6 108.817 417.432V409.608H112.897V416.88C112.897 417.776 113.129 418.472 113.593 418.968C114.057 419.464 114.681 419.712 115.465 419.712C116.265 419.712 116.897 419.464 117.361 418.968C117.825 418.472 118.057 417.776 118.057 416.88V409.608H122.161ZM129.213 411.84C129.693 411.104 130.293 410.528 131.013 410.112C131.733 409.68 132.533 409.464 133.413 409.464V413.808H132.285C131.261 413.808 130.493 414.032 129.981 414.48C129.469 414.912 129.213 415.68 129.213 416.784V423H125.109V409.608H129.213V411.84ZM142.525 408.216C141.805 408.216 141.213 408.008 140.749 407.592C140.301 407.16 140.077 406.632 140.077 406.008C140.077 405.368 140.301 404.84 140.749 404.424C141.213 403.992 141.805 403.776 142.525 403.776C143.229 403.776 143.805 403.992 144.253 404.424C144.717 404.84 144.949 405.368 144.949 406.008C144.949 406.632 144.717 407.16 144.253 407.592C143.805 408.008 143.229 408.216 142.525 408.216ZM144.565 409.608V423H140.461V409.608H144.565ZM155.699 409.464C157.267 409.464 158.515 409.976 159.443 411C160.387 412.008 160.859 413.4 160.859 415.176V423H156.779V415.728C156.779 414.832 156.547 414.136 156.083 413.64C155.619 413.144 154.995 412.896 154.211 412.896C153.427 412.896 152.803 413.144 152.339 413.64C151.875 414.136 151.643 414.832 151.643 415.728V423H147.539V409.608H151.643V411.384C152.059 410.792 152.619 410.328 153.323 409.992C154.027 409.64 154.819 409.464 155.699 409.464ZM167.815 411.504C168.199 410.88 168.751 410.376 169.471 409.992C170.191 409.608 171.015 409.416 171.943 409.416C173.047 409.416 174.047 409.696 174.943 410.256C175.839 410.816 176.543 411.616 177.055 412.656C177.583 413.696 177.847 414.904 177.847 416.28C177.847 417.656 177.583 418.872 177.055 419.928C176.543 420.968 175.839 421.776 174.943 422.352C174.047 422.912 173.047 423.192 171.943 423.192C170.999 423.192 170.175 423.008 169.471 422.64C168.767 422.256 168.215 421.752 167.815 421.128V423H163.711V405.24H167.815V411.504ZM173.671 416.28C173.671 415.256 173.383 414.456 172.807 413.88C172.247 413.288 171.551 412.992 170.719 412.992C169.903 412.992 169.207 413.288 168.631 413.88C168.071 414.472 167.791 415.28 167.791 416.304C167.791 417.328 168.071 418.136 168.631 418.728C169.207 419.32 169.903 419.616 170.719 419.616C171.535 419.616 172.231 419.32 172.807 418.728C173.383 418.12 173.671 417.304 173.671 416.28ZM186.096 423.192C184.784 423.192 183.6 422.912 182.544 422.352C181.504 421.792 180.68 420.992 180.072 419.952C179.48 418.912 179.184 417.696 179.184 416.304C179.184 414.928 179.488 413.72 180.096 412.68C180.704 411.624 181.536 410.816 182.592 410.256C183.648 409.696 184.832 409.416 186.144 409.416C187.456 409.416 188.64 409.696 189.696 410.256C190.752 410.816 191.584 411.624 192.192 412.68C192.8 413.72 193.104 414.928 193.104 416.304C193.104 417.68 192.792 418.896 192.168 419.952C191.56 420.992 190.72 421.792 189.648 422.352C188.592 422.912 187.408 423.192 186.096 423.192ZM186.096 419.64C186.88 419.64 187.544 419.352 188.088 418.776C188.648 418.2 188.928 417.376 188.928 416.304C188.928 415.232 188.656 414.408 188.112 413.832C187.584 413.256 186.928 412.968 186.144 412.968C185.344 412.968 184.68 413.256 184.152 413.832C183.624 414.392 183.36 415.216 183.36 416.304C183.36 417.376 183.616 418.2 184.128 418.776C184.656 419.352 185.312 419.64 186.096 419.64ZM203.201 423L200.633 419.28L198.473 423H194.033L198.449 416.16L193.913 409.608H198.521L201.089 413.304L203.249 409.608H207.689L203.201 416.352L207.809 423H203.201ZM216.54 408.216C215.82 408.216 215.228 408.008 214.764 407.592C214.316 407.16 214.092 406.632 214.092 406.008C214.092 405.368 214.316 404.84 214.764 404.424C215.228 403.992 215.82 403.776 216.54 403.776C217.244 403.776 217.82 403.992 218.268 404.424C218.732 404.84 218.964 405.368 218.964 406.008C218.964 406.632 218.732 407.16 218.268 407.592C217.82 408.008 217.244 408.216 216.54 408.216ZM218.58 409.608V423H214.476V409.608H218.58ZM227.002 423.192C225.834 423.192 224.794 422.992 223.882 422.592C222.97 422.192 222.25 421.648 221.722 420.96C221.194 420.256 220.898 419.472 220.834 418.608H224.89C224.938 419.072 225.154 419.448 225.538 419.736C225.922 420.024 226.394 420.168 226.954 420.168C227.466 420.168 227.858 420.072 228.13 419.88C228.418 419.672 228.562 419.408 228.562 419.088C228.562 418.704 228.362 418.424 227.962 418.248C227.562 418.056 226.914 417.848 226.018 417.624C225.058 417.4 224.258 417.168 223.618 416.928C222.978 416.672 222.426 416.28 221.962 415.752C221.498 415.208 221.266 414.48 221.266 413.568C221.266 412.8 221.474 412.104 221.89 411.48C222.322 410.84 222.946 410.336 223.762 409.968C224.594 409.6 225.578 409.416 226.714 409.416C228.394 409.416 229.714 409.832 230.674 410.664C231.65 411.496 232.21 412.6 232.354 413.976H228.562C228.498 413.512 228.29 413.144 227.938 412.872C227.602 412.6 227.154 412.464 226.594 412.464C226.114 412.464 225.746 412.56 225.49 412.752C225.234 412.928 225.106 413.176 225.106 413.496C225.106 413.88 225.306 414.168 225.706 414.36C226.122 414.552 226.762 414.744 227.626 414.936C228.618 415.192 229.426 415.448 230.05 415.704C230.674 415.944 231.218 416.344 231.682 416.904C232.162 417.448 232.41 418.184 232.426 419.112C232.426 419.896 232.202 420.6 231.754 421.224C231.322 421.832 230.69 422.312 229.858 422.664C229.042 423.016 228.09 423.192 227.002 423.192ZM252.647 416.088C252.647 416.472 252.623 416.872 252.575 417.288H243.287C243.351 418.12 243.615 418.76 244.079 419.208C244.559 419.64 245.143 419.856 245.831 419.856C246.855 419.856 247.567 419.424 247.967 418.56H252.335C252.111 419.44 251.703 420.232 251.111 420.936C250.535 421.64 249.807 422.192 248.927 422.592C248.047 422.992 247.063 423.192 245.975 423.192C244.663 423.192 243.495 422.912 242.471 422.352C241.447 421.792 240.647 420.992 240.071 419.952C239.495 418.912 239.207 417.696 239.207 416.304C239.207 414.912 239.487 413.696 240.047 412.656C240.623 411.616 241.423 410.816 242.447 410.256C243.471 409.696 244.647 409.416 245.975 409.416C247.271 409.416 248.423 409.688 249.431 410.232C250.439 410.776 251.223 411.552 251.783 412.56C252.359 413.568 252.647 414.744 252.647 416.088ZM248.447 415.008C248.447 414.304 248.207 413.744 247.727 413.328C247.247 412.912 246.647 412.704 245.927 412.704C245.239 412.704 244.655 412.904 244.175 413.304C243.711 413.704 243.423 414.272 243.311 415.008H248.447ZM271.9 409.464C273.564 409.464 274.884 409.968 275.86 410.976C276.852 411.984 277.348 413.384 277.348 415.176V423H273.268V415.728C273.268 414.864 273.036 414.2 272.572 413.736C272.124 413.256 271.5 413.016 270.7 413.016C269.9 413.016 269.268 413.256 268.804 413.736C268.356 414.2 268.132 414.864 268.132 415.728V423H264.052V415.728C264.052 414.864 263.82 414.2 263.356 413.736C262.908 413.256 262.284 413.016 261.484 413.016C260.684 413.016 260.052 413.256 259.588 413.736C259.14 414.2 258.916 414.864 258.916 415.728V423H254.812V409.608H258.916V411.288C259.332 410.728 259.876 410.288 260.548 409.968C261.22 409.632 261.98 409.464 262.828 409.464C263.836 409.464 264.732 409.68 265.516 410.112C266.316 410.544 266.94 411.16 267.388 411.96C267.852 411.224 268.484 410.624 269.284 410.16C270.084 409.696 270.956 409.464 271.9 409.464ZM284.322 411.504C284.722 410.88 285.274 410.376 285.978 409.992C286.682 409.608 287.506 409.416 288.45 409.416C289.554 409.416 290.554 409.696 291.45 410.256C292.346 410.816 293.05 411.616 293.562 412.656C294.09 413.696 294.354 414.904 294.354 416.28C294.354 417.656 294.09 418.872 293.562 419.928C293.05 420.968 292.346 421.776 291.45 422.352C290.554 422.912 289.554 423.192 288.45 423.192C287.522 423.192 286.698 423 285.978 422.616C285.274 422.232 284.722 421.736 284.322 421.128V429.384H280.218V409.608H284.322V411.504ZM290.178 416.28C290.178 415.256 289.89 414.456 289.314 413.88C288.754 413.288 288.058 412.992 287.226 412.992C286.41 412.992 285.714 413.288 285.138 413.88C284.578 414.472 284.298 415.28 284.298 416.304C284.298 417.328 284.578 418.136 285.138 418.728C285.714 419.32 286.41 419.616 287.226 419.616C288.042 419.616 288.738 419.32 289.314 418.728C289.89 418.12 290.178 417.304 290.178 416.28ZM303.972 419.52V423H301.884C300.396 423 299.236 422.64 298.404 421.92C297.572 421.184 297.156 419.992 297.156 418.344V413.016H295.524V409.608H297.156V406.344H301.26V409.608H303.948V413.016H301.26V418.392C301.26 418.792 301.356 419.08 301.548 419.256C301.74 419.432 302.06 419.52 302.508 419.52H303.972ZM319.938 409.608L311.538 429.36H307.122L310.194 422.544L304.746 409.608H309.33L312.426 417.984L315.498 409.608H319.938Z" fill="#303030"/>
</g>
<defs>
<filter id="filter0_d_1219_6549" x="-30" y="-10" width="456" height="541" filterUnits="userSpaceOnUse" color-interpolation-filters="sRGB">
<feFlood flood-opacity="0" result="BackgroundImageFix"/>
<feColorMatrix in="SourceAlpha" type="matrix" values="0 0 0 0 0 0 0 0 0 0 0 0 0 0 0 0 0 0 127 0" result="hardAlpha"/>
<feOffset dy="20"/>
<feGaussianBlur stdDeviation="15"/>
<feComposite in2="hardAlpha" operator="out"/>
<feColorMatrix type="matrix" values="0 0 0 0 0.570833 0 0 0 0 0.570833 0 0 0 0 0.570833 0 0 0 0.19 0"/>
<feBlend mode="normal" in2="BackgroundImageFix" result="effect1_dropShadow_1219_6549"/>
<feBlend mode="normal" in="SourceGraphic" in2="effect1_dropShadow_1219_6549" result="shape"/>
</filter>
<linearGradient id="paint0_linear_1219_6549" x1="191.712" y1="47.0416" x2="194.012" y2="445.637" gradientUnits="userSpaceOnUse">
<stop stop-color="#F2F2F2"/>
<stop offset="1" stop-color="#EFEFEF"/>
</linearGradient>
</defs>
</svg>
